<?xml version="1.0" encoding="UTF-8"?>
<svg xmlns="http://www.w3.org/2000/svg" version="1.1" viewBox="0 0 649 649">
  <!-- Generator: Adobe Illustrator 29.8.2, SVG Export Plug-In . SVG Version: 2.1.1 Build 3)  -->
  <defs>
    <style>
      .st0 {
        fill: #404140;
      }

      .st1 {
        fill: #939392;
      }

      .st2 {
        fill: #545554;
      }

      .st3 {
        fill: #fff;
      }

      .st4 {
        fill: #b5b5b4;
      }
    </style>
  </defs>
  <g id="Background">
    <rect class="st3" width="648" height="648"/>
  </g>
  <g id="hijab">
    <rect class="st1" x="288" y="369" width="72" height="126" rx="36" ry="36"/>
    <path class="st1" d="M144,648c0-109.35,80.59-198,180-198s180,88.65,180,198"/>
    <circle class="st4" cx="324" cy="324" r="108"/>
    <path class="st0" d="M472.37,539.57l12.42,19.39c25.81-20.64,28.33-44.56,25.79-61.21-1.68-11-6.96-21.12-14.83-28.99l-34.3-34.3c-1.38-1.38-2.87-2.64-4.38-3.89-23.74-19.72,2.15-81.14,10.93-142.57,9-90-72-153-72-153-36-27-90-9-90-9,0,0-81,18-117,99-18.79,47.84-12.95,97.76-3.24,128.73.52,1.67,5.14,12.31,6.06,16.26,5.56,23.85,2.55,47.63-11.83,62.01,0,0-97.27,97.97-23.3,144,4.52-36.71,113.3,45,131.3,54,27,18,54,9,72,0,0,0,72-36,135-117l-22.63,26.57Z"/>
    <path class="st2" d="M428.75,582.21c-38.46-4.68-74.74-18.73-108.73-42.89-27.15-19.29-52.61-44.67-75.69-75.44-39.25-52.33-52.92-95.26-56.03-103.76l.53-.4c.19.5,19.84,49.96,58.77,101.84,22.82,30.42,47.99,55.49,74.79,74.53,33.44,23.75,71.33,39.09,109.11,43.68l-2.74,2.43Z"/>
    <path class="st2" d="M328.7,543.76l-2.92-2.74c76.85-56.23,119.2-140.94,121.84-146.41l-.22,4.05c1.93-1.86-39.12,88.1-118.7,145.09Z"/>
    <ellipse class="st4" cx="324" cy="306" rx="94.5" ry="108"/>
  </g>
</svg>