<?xml version="1.0" encoding="UTF-8"?>

<svg id="Layer_1" xmlns="http://www.w3.org/2000/svg" viewBox="0 0 2516.96 2677.86">
        <rect x="879.28" y="1017.46" width="79.5" height="79.5" transform="translate(2097.26 299.54) rotate(98.26)" fill="var(--artist-background, #000000)"/>
        <rect x="322.93" y="1258.39" width="146.73" height="146.73" transform="translate(1658.66 751.21) rotate(81.87)" fill="var(--artist-background, #000000)"/>
        <rect x="36.67" y="1267.39" width="215.26" height="215.26" transform="translate(1311.22 633.55) rotate(63.56)" fill="var(--artist-background, #000000)"/>
        <rect x="283.65" y="1252.67" width="211.24" height="211.24" transform="translate(1697.3 823.91) rotate(83.77)" fill="var(--artist-background, #000000)"/>
        <rect x="920.01" y="1357.44" width="224.63" height="224.63" transform="translate(2720.23 855.86) rotate(105.1)" fill="var(--artist-background, #000000)"/>
        <rect x="1252.52" y="1196.52" width="139.54" height="139.54" transform="translate(2623 -22.15) rotate(91.51)" fill="var(--artist-background, #000000)"/>
        <rect x="1462.93" y="980.84" width="123" height="123" transform="translate(3299.95 534.49) rotate(129.67)" fill="var(--artist-background, #000000)"/>
        <rect x="1597.55" y="1190.58" width="233" height="233" transform="translate(1054.49 -745.09) rotate(34.85)" fill="var(--artist-background, #000000)"/>
        <rect x="1836.43" y="1679.77" width="202.03" height="202.03" transform="translate(3614.12 -247.44) rotate(86.99)" fill="var(--artist-background, #000000)"/>
        <rect x="1780.73" y="2046.12" width="134.24" height="134.24" transform="translate(3394.2 -229.65) rotate(74.59)" fill="var(--artist-background, #000000)"/>
        <rect x="1173.83" y="2009.74" width="209.19" height="209.19" transform="translate(185.13 -101.4) rotate(4.9)" fill="var(--artist-background, #000000)"/>
        <rect x="923.52" y="1786.79" width="165.75" height="165.75" transform="translate(3051.53 2440.53) rotate(133.89)" fill="var(--artist-background, #000000)"/>
        <rect x="788.82" y="1184.81" width="207.78" height="207.78" transform="translate(1891.43 80.31) rotate(74.28)" fill="var(--artist-background, #000000)"/>
        <rect x="1285.5" y="1305.5" width="238.67" height="238.67" transform="translate(2878.31 71.1) rotate(92.02)" fill="var(--artist-background, #000000)"/>
        <rect x="838.77" y="1667.76" width="126.02" height="126.02" transform="translate(1463.48 -138.25) rotate(44.25)" fill="var(--artist-background, #000000)"/>
        <rect x="437.36" y="2101.77" width="92.25" height="92.25" transform="translate(1067.65 25.17) rotate(28.07)" fill="var(--artist-background, #000000)"/>
        <rect x="424.15" y="1559.77" width="216.07" height="216.07" transform="translate(1550.31 243.65) rotate(53.26)" fill="var(--artist-background, #000000)"/>
        <rect x="566.08" y="1633.62" width="97.66" height="97.66" transform="translate(152.41 -48.11) rotate(5.11)" fill="var(--artist-background, #000000)"/>
        <rect x="434.13" y="2065.41" width="206.45" height="206.45" transform="translate(2259.42 745.18) rotate(64.34)" fill="var(--artist-background, #000000)"/>
        <rect x="246.73" y="1646.48" width="264.06" height="264.06" transform="translate(2162.91 2129.77) rotate(113.16)" fill="var(--artist-background, #000000)"/>
        <rect x="329.88" y="1342.83" width="97.57" height="97.57" transform="translate(1685.39 2001.87) rotate(130.25)" fill="var(--artist-background, #000000)"/>
        <rect x="247.55" y="880.38" width="187.34" height="187.34" transform="translate(1313.6 628.11) rotate(89.72)" fill="var(--artist-background, #000000)"/>
        <rect x="128.85" y="1081.07" width="222.43" height="222.43" transform="translate(1323.33 1745.18) rotate(128.42)" fill="var(--artist-background, #000000)"/>
        <rect x="522.91" y="1072.33" width="108.77" height="108.77" transform="translate(1270.6 67.43) rotate(60.33)" fill="var(--artist-background, #000000)"/>
        <rect x="949.49" y="827.86" width="258.93" height="258.93" transform="translate(1334 -462.38) rotate(58.6)" fill="var(--artist-background, #000000)"/>
        <rect x="1188.32" y="1182.55" width="69.51" height="69.51" transform="translate(2331 -105.66) rotate(85.08)" fill="var(--artist-background, #000000)"/>
        <rect x="840.89" y="1191.92" width="149.17" height="149.17" transform="translate(1328.89 -240.55) rotate(51.2)" fill="var(--artist-background, #000000)"/>
        <rect x="745.7" y="1526.62" width="81.5" height="81.5" transform="translate(2530.13 1381.06) rotate(110.55)" fill="var(--artist-background, #000000)"/>
        <rect x="1300.88" y="1790.24" width="73.8" height="73.8" transform="translate(2192.35 -269.95) rotate(58.38)" fill="var(--artist-background, #000000)"/>
        <rect x="1425.74" y="1414.28" width="265.93" height="265.93" transform="translate(3258.83 156.88) rotate(95.94)" fill="var(--artist-background, #000000)"/>
        <rect x="1234.05" y="912.65" width="87.48" height="87.48" transform="translate(1671.8 -590.28) rotate(67.48)" fill="var(--artist-background, #000000)"/>
        <rect x="1202.16" y="586.6" width="120.92" height="120.92" transform="translate(871.9 -716.84) rotate(46.88)" fill="var(--artist-background, #000000)"/>
        <rect x="1643.46" y="553.22" width="134.3" height="134.3" transform="translate(2194.9 -1133.63) rotate(85.5)" fill="var(--artist-background, #000000)"/>
        <rect x="1622.4" y="625.17" width="232.38" height="232.38" transform="translate(3454.6 -50.86) rotate(132.12)" fill="var(--artist-background, #000000)"/>
        <rect x="1232.47" y="667.71" width="78.73" height="78.73" transform="translate(1598.63 -710.93) rotate(73.91)" fill="var(--artist-background, #000000)"/>
        <rect x="820.5" y="954.85" width="76.36" height="76.36" transform="translate(1832.36 112.46) rotate(88.72)" fill="var(--artist-background, #000000)"/>
        <rect x="625.26" y="648.75" width="228.61" height="228.61" transform="translate(1686.27 280.39) rotate(107.09)" fill="var(--artist-background, #000000)"/>
        <rect x="265.88" y="615.82" width="137.27" height="137.27" transform="translate(316.71 -77.16) rotate(24.71)" fill="var(--artist-background, #000000)"/>
        <rect x="216.72" y="1110.29" width="34.35" height="34.35" transform="translate(-892.39 887.96) rotate(-66.27)" fill="none" stroke="var(--artist-accent, #777777)" stroke-miterlimit="10" stroke-width="1.97"/>
        <rect x="244.04" y="657.09" width="97.84" height="97.84" transform="translate(-454.75 547.24) rotate(-55.48)" fill="none" stroke="var(--artist-accent, #777777)" stroke-miterlimit="10" stroke-width="5.6"/>
        <rect x="317.11" y="905.24" width="129.4" height="129.4" transform="translate(-637.28 750.8) rotate(-56.38)" fill="none" stroke="var(--artist-accent, #777777)" stroke-miterlimit="10" stroke-width="7.41"/>
        <rect x="255.65" y="1511.22" width="58.21" height="58.21" transform="translate(-1012.72 662.69) rotate(-45.45)" fill="none" stroke="var(--artist-accent, #777777)" stroke-miterlimit="10" stroke-width="3.33"/>
        <rect x="248.63" y="1455.52" width="125.27" height="125.27" transform="translate(-1203.73 1191.84) rotate(-66.26)" fill="none" stroke="var(--artist-accent, #777777)" stroke-miterlimit="10" stroke-width="7.17"/>
        <rect x="655.55" y="1634.1" width="41.63" height="41.63" transform="translate(-1072.58 1284.27) rotate(-55.8)" fill="none" stroke="var(--artist-accent, #777777)" stroke-miterlimit="10" stroke-width="2.38"/>
        <rect x="1067.71" y="1767.31" width="19.77" height="19.77" transform="translate(-993.9 1946.18) rotate(-63.43)" fill="none" stroke="var(--artist-accent, #777777)" stroke-miterlimit="10" stroke-width="1.13"/>
        <rect x="1388.52" y="1849.39" width="77.47" height="77.47" transform="translate(-837.91 2574.46) rotate(-69.77)" fill="none" stroke="var(--artist-accent, #777777)" stroke-miterlimit="10" stroke-width="4.44"/>
        <rect x="1012.62" y="1930.94" width="110.72" height="110.72" transform="translate(-1187.19 1973.34) rotate(-61.4)" fill="none" stroke="var(--artist-accent, #777777)" stroke-miterlimit="10" stroke-width="6.34"/>
        <rect x="761.9" y="1642.66" width="130.7" height="130.7" transform="translate(-1066.65 1829.6) rotate(-67.83)" fill="none" stroke="var(--artist-accent, #777777)" stroke-miterlimit="10" stroke-width="7.49"/>
        <rect x="263.39" y="1961.53" width="127.03" height="127.03" transform="translate(-1679.73 1599.53) rotate(-68.86)" fill="none" stroke="var(--artist-accent, #777777)" stroke-miterlimit="10" stroke-width="7.28"/>
        <rect x="848.36" y="2188.49" width="52.75" height="52.75" transform="translate(-1506.38 2181.97) rotate(-67.66)" fill="none" stroke="var(--artist-accent, #777777)" stroke-miterlimit="10" stroke-width="3.02"/>
        <rect x="1597.46" y="2428.98" width="46.16" height="46.16" transform="translate(-1318.62 2443.56) rotate(-56.37)" fill="none" stroke="var(--artist-accent, #777777)" stroke-miterlimit="10" stroke-width="2.64"/>
        <rect x="1636.11" y="1923.74" width="96.38" height="96.38" transform="translate(-721.2 2940.9) rotate(-71.44)" fill="none" stroke="var(--artist-accent, #777777)" stroke-miterlimit="10" stroke-width="5.52"/>
        <rect x="1326.25" y="1537.61" width="46.99" height="46.99" transform="translate(-713.9 1576.09) rotate(-49.57)" fill="none" stroke="var(--artist-accent, #777777)" stroke-miterlimit="10" stroke-width="2.69"/>
        <rect x="1331.76" y="954.77" width="113.49" height="113.49" transform="translate(-268.28 1465.56) rotate(-51.4)" fill="none" stroke="var(--artist-accent, #777777)" stroke-miterlimit="10" stroke-width="6.5"/>
        <rect x="1635.28" y="628.31" width="98.54" height="98.54" transform="translate(398.53 1959.37) rotate(-66.82)" fill="none" stroke="var(--artist-accent, #777777)" stroke-miterlimit="10" stroke-width="5.64"/>
        <rect x="1639.5" y="830.75" width="107.75" height="107.75" transform="translate(-8.14 1753.48) rotate(-54.63)" fill="none" stroke="var(--artist-accent, #777777)" stroke-miterlimit="10" stroke-width="6.17"/>
        <rect x="1806.54" y="1443.56" width="119.43" height="119.43" transform="translate(-190.82 2732.58) rotate(-69.71)" fill="none" stroke="var(--artist-accent, #777777)" stroke-miterlimit="10" stroke-width="6.84"/>
        <rect x="2174.45" y="1826.56" width="28.16" height="28.16" transform="translate(-514 2775.47) rotate(-59.15)" fill="none" stroke="var(--artist-accent, #777777)" stroke-miterlimit="10" stroke-width="1.61"/>
        <rect x="2096.53" y="1601.73" width="64.63" height="64.63" transform="translate(-464.96 2322.71) rotate(-52.38)" fill="none" stroke="var(--artist-accent, #777777)" stroke-miterlimit="10" stroke-width="3.7"/>
        <rect x="1416.93" y="1591.63" width="37.58" height="37.58" transform="translate(-719.25 1714.66) rotate(-51.05)" fill="none" stroke="var(--artist-accent, #777777)" stroke-miterlimit="10" stroke-width="2.15"/>
        <rect x="810.86" y="1500.89" width="99.81" height="99.81" transform="translate(-862.02 1129.03) rotate(-47.21)" fill="none" stroke="var(--artist-accent, #777777)" stroke-miterlimit="10" stroke-width="5.72"/>
        <rect x="682.86" y="1198.88" width="125.56" height="125.56" transform="translate(-704.28 1474.92) rotate(-67.78)" fill="none" stroke="var(--artist-accent, #777777)" stroke-miterlimit="10" stroke-width="7.19"/>
        <rect x="933.63" y="920.94" width="71.94" height="71.94" transform="translate(-320.52 1394.41) rotate(-63.36)" fill="none" stroke="var(--artist-accent, #777777)" stroke-miterlimit="10" stroke-width="4.12"/>
        <rect x="1374.62" y="1107.75" width="106.33" height="106.33" transform="translate(-390.93 1441.21) rotate(-47.88)" fill="none" stroke="var(--artist-accent, #777777)" stroke-miterlimit="10" stroke-width="6.09"/>
        <rect x="1599.15" y="534.1" width="88.3" height="88.3" transform="translate(130.09 1441.39) rotate(-49.09)" fill="none" stroke="var(--artist-accent, #777777)" stroke-miterlimit="10" stroke-width="5.06"/>
        <rect x="1920.96" y="815.66" width="18.69" height="18.69" transform="translate(399.51 2261.46) rotate(-66.32)" fill="none" stroke="var(--artist-accent, #777777)" stroke-miterlimit="10" stroke-width="1.07"/>
        <rect x="1538.63" y="748.4" width="59.27" height="59.27" transform="translate(167.58 1828.22) rotate(-63.25)" fill="none" stroke="var(--artist-accent, #777777)" stroke-miterlimit="10" stroke-width="3.39"/>
        <rect x="1079.22" y="752.03" width="118.18" height="118.18" transform="translate(-237.51 1057.65) rotate(-45.63)" fill="none" stroke="var(--artist-accent, #777777)" stroke-miterlimit="10" stroke-width="6.77"/>
        <rect x="783.29" y="944.65" width="67.67" height="67.67" transform="translate(-448.86 1128.2) rotate(-56.88)" fill="none" stroke="var(--artist-accent, #777777)" stroke-miterlimit="10" stroke-width="3.88"/>
        <rect x="527.59" y="1107.61" width="53.67" height="53.67" transform="translate(-707.95 1161.82) rotate(-65.2)" fill="none" stroke="var(--artist-accent, #777777)" stroke-miterlimit="10" stroke-width="3.07"/>
        <rect x="813.04" y="652.21" width="111.48" height="111.48" transform="translate(-208.27 1017.68) rotate(-55.22)" fill="none" stroke="var(--artist-accent, #777777)" stroke-miterlimit="10" stroke-width="6.38"/>
        <rect x="358.46" y="443.92" width="38.58" height="38.58" transform="translate(-191.08 646.77) rotate(-68.69)" fill="none" stroke="var(--artist-accent, #777777)" stroke-miterlimit="10" stroke-width="2.21"/>
        <rect x="742.02" y="2294.79" width="198.36" height="198.36" transform="translate(2304.41 320.88) rotate(54.58)" fill="none" stroke="var(--artist-text, #ffffff)" stroke-miterlimit="10" stroke-width="7.44"/>
        <rect x="1270.72" y="2451.1" width="194.13" height="194.13" transform="translate(983.99 -318.31) rotate(20.6)" fill="none" stroke="var(--artist-text, #ffffff)" stroke-miterlimit="10" stroke-width="7.28"/>
        <rect x="2304.48" y="2024.43" width="191.29" height="191.29" transform="translate(4005.85 -650.66) rotate(78.64)" fill="none" stroke="var(--artist-text, #ffffff)" stroke-miterlimit="10" stroke-width="7.17"/>
        <rect x="1518.92" y="1518.2" width="198.9" height="198.9" transform="translate(1555.48 -669.7) rotate(43.44)" fill="none" stroke="var(--artist-text, #ffffff)" stroke-miterlimit="10" stroke-width="7.46"/>
        <rect x="833.65" y="1533.48" width="186.77" height="186.77" transform="translate(2614.84 816.06) rotate(94.02)" fill="none" stroke="var(--artist-text, #ffffff)" stroke-miterlimit="10" stroke-width="7"/>
        <rect x="483.14" y="1704.23" width="197.2" height="197.2" transform="translate(1473.86 131.68) rotate(45.98)" fill="none" stroke="var(--artist-text, #ffffff)" stroke-miterlimit="10" stroke-width="7.39"/>
        <rect x="933.09" y="1649.11" width="189.5" height="189.5" transform="translate(906.48 -276.73) rotate(27.08)" fill="none" stroke="var(--artist-text, #ffffff)" stroke-miterlimit="10" stroke-width="7.11"/>
        <rect x="1777.39" y="1978.6" width="207.93" height="207.93" transform="translate(1253.23 -652.77) rotate(29.16)" fill="none" stroke="var(--artist-text, #ffffff)" stroke-miterlimit="10" stroke-width="7.8"/>
        <rect x="1406.16" y="1193.4" width="197.92" height="197.92" transform="translate(1994.94 -630.05) rotate(63.64)" fill="none" stroke="var(--artist-text, #ffffff)" stroke-miterlimit="10" stroke-width="7.42"/>
        <rect x="753.34" y="751.4" width="189.17" height="189.17" transform="translate(12.3 -12.15) rotate(.83)" fill="none" stroke="var(--artist-text, #ffffff)" stroke-miterlimit="10" stroke-width="7.09"/>
        <rect x="589.26" y="1521.8" width="198.77" height="198.77" transform="translate(2409.17 1243.98) rotate(100.65)" fill="none" stroke="var(--artist-text, #ffffff)" stroke-miterlimit="10" stroke-width="7.45"/>
        <rect x="728.06" y="1669.38" width="179.82" height="179.82" transform="translate(1264.13 -128.86) rotate(38.23)" fill="none" stroke="var(--artist-text, #ffffff)" stroke-miterlimit="10" stroke-width="6.74"/>
        <rect x="1244.17" y="1178.19" width="206.9" height="206.9" transform="translate(1604.86 -560.24) rotate(54.39)" fill="none" stroke="var(--artist-text, #ffffff)" stroke-miterlimit="10" stroke-width="7.76"/>
        <rect x="1859.36" y="478.72" width="194.01" height="194.01" transform="translate(1248.5 -1336.8) rotate(53.29)" fill="none" stroke="var(--artist-text, #ffffff)" stroke-miterlimit="10" stroke-width="7.27"/>
        <rect x="1176.93" y="413.7" width="199.33" height="199.33" transform="translate(2001.02 -656.43) rotate(99.86)" fill="none" stroke="var(--artist-text, #ffffff)" stroke-miterlimit="10" stroke-width="7.47"/>
        <rect x="824.43" y="590.36" width="197.23" height="197.23" transform="translate(848.53 -460.44) rotate(49.55)" fill="none" stroke="var(--artist-text, #ffffff)" stroke-miterlimit="10" stroke-width="7.4"/>
        <rect x="476.77" y="670.82" width="183.98" height="183.98" transform="translate(1378.93 263.81) rotate(95.08)" fill="none" stroke="var(--artist-text, #ffffff)" stroke-miterlimit="10" stroke-width="6.9"/>
        <rect x="279.78" y="1112.73" width="202.39" height="202.39" transform="translate(1640.01 1030.71) rotate(99.14)" fill="none" stroke="var(--artist-text, #ffffff)" stroke-miterlimit="10" stroke-width="7.59"/>
        <rect x="1079.16" y="1429.86" width="183.15" height="183.15" transform="translate(112.35 -80.19) rotate(4.12)" fill="none" stroke="var(--artist-text, #ffffff)" stroke-miterlimit="10" stroke-width="6.87"/>
        <rect x="2040.94" y="1213.5" width="185.19" height="185.19" transform="translate(1107.54 -975.39) rotate(34.31)" fill="none" stroke="var(--artist-text, #ffffff)" stroke-miterlimit="10" stroke-width="6.94"/>
        <rect x="1462.04" y="93.83" width="186.35" height="186.35" transform="translate(1188.01 -1335.76) rotate(69.59)" fill="none" stroke="var(--artist-text, #ffffff)" stroke-miterlimit="10" stroke-width="6.99"/>
        <rect x="994.28" y="47.05" width="203.81" height="203.81" transform="translate(505.09 -786.15) rotate(49.96)" fill="none" stroke="var(--artist-text, #ffffff)" stroke-miterlimit="10" stroke-width="7.64"/>
        <rect x="641.93" y="188.96" width="185.21" height="185.21" transform="translate(701.17 -504.38) rotate(66.6)" fill="none" stroke="var(--artist-text, #ffffff)" stroke-miterlimit="10" stroke-width="6.94"/>
        <rect x="42.03" y="268.4" width="192.66" height="192.66" transform="translate(6.76 -2.49) rotate(1.06)" fill="none" stroke="var(--artist-text, #ffffff)" stroke-miterlimit="10" stroke-width="7.22"/>
      </svg>