<?xml version="1.0" encoding="UTF-8"?><svg id="Layer_2" xmlns="http://www.w3.org/2000/svg" viewBox="0 0 2699.91 2413.2">
      <polygon points="455.91 533.19 161.08 352.65 368.97 198.58 455.91 533.19" fill="var(--artist-background)" stroke="var(--artist-text)" stroke-miterlimit="10" stroke-width="7.43"/>
      <polygon points="910.05 1221.2 992.34 1135.83 1028.55 1216.85 910.05 1221.2" fill="var(--artist-background)" stroke="var(--artist-text)" stroke-miterlimit="10" stroke-width="2.55"/>
      <polygon points="582.87 1007.26 427.79 1257.62 297.46 1079.86 582.87 1007.26" fill="var(--artist-background)" stroke="var(--artist-text)" stroke-miterlimit="10" stroke-width="6.33"/>
      <polygon points="1445.4 983.92 1188.79 770.82 1408.58 652.4 1445.4 983.92" fill="var(--artist-background)" stroke="var(--artist-text)" stroke-miterlimit="10" stroke-width="7.17"/>
      <polygon points="1897.47 853.09 1628.93 477.38 1964.92 396.23 1897.47 853.09" fill="var(--artist-background)" stroke="var(--artist-text)" stroke-miterlimit="10" stroke-width="9.92"/>
      <polygon points="839.73 721.49 866.08 453.14 1044.95 546.59 839.73 721.49" fill="var(--artist-background)" stroke="var(--artist-text)" stroke-miterlimit="10" stroke-width="5.79"/>
      <polygon points="1395.93 1689.37 1772.19 1567.15 1751.63 1862.54 1395.93 1689.37" fill="var(--artist-background)" stroke="var(--artist-text)" stroke-miterlimit="10" stroke-width="8.5"/>
      <polygon points="942.92 1975.75 821.94 2033.6 815.68 1933.42 942.92 1975.75" fill="var(--artist-background)" stroke="var(--artist-text)" stroke-miterlimit="10" stroke-width="2.88"/>
      <polygon points="482.34 1923.29 460.4 2142.34 314.52 2065.75 482.34 1923.29" fill="var(--artist-background)" stroke="var(--artist-text)" stroke-miterlimit="10" stroke-width="4.73"/>
      <polygon points="930.08 1689.51 640.04 1586.6 792.71 1414.12 930.08 1689.51" fill="var(--artist-background)" stroke="var(--artist-text)" stroke-miterlimit="10" stroke-width="6.61"/>
      <polygon points="588.67 1550.57 192.46 1733.54 176.45 1407.29 588.67 1550.57" fill="var(--artist-background)" stroke="var(--artist-text)" stroke-miterlimit="10" stroke-width="9.38"/>
      <polygon points="1526.34 1260.46 1782.75 1450.65 1578.92 1575.34 1526.34 1260.46" fill="var(--artist-background)" stroke="var(--artist-text)" stroke-miterlimit="10" stroke-width="6.86"/>
      <polygon points="1130.94 1302.91 1404.27 1484.17 1201.91 1623.11 1130.94 1302.91" fill="var(--artist-background)" stroke="var(--artist-text)" stroke-miterlimit="10" stroke-width="7.05"/>
      <polygon points="728.06 863.92 918.07 1076.72 717.15 1149.01 728.06 863.92" fill="var(--artist-background)" stroke="var(--artist-text)" stroke-miterlimit="10" stroke-width="6.13"/>
      <polygon points="538.76 731.99 405.73 914.3 316.46 770.9 538.76 731.99" fill="var(--artist-background)" stroke="var(--artist-text)" stroke-miterlimit="10" stroke-width="4.85"/>
      <polygon points="825.78 805.75 1094.44 711.28 1084.75 924.21 825.78 805.75" fill="var(--artist-background)" stroke="var(--artist-text)" stroke-miterlimit="10" stroke-width="6.12"/>
      <polygon points="1549.41 477.66 1144.01 400.39 1311.2 140.66 1549.41 477.66" fill="var(--artist-background)" stroke="var(--artist-text)" stroke-miterlimit="10" stroke-width="8.87"/>
      <polygon points="1440.28 974.81 1780.27 678.85 1890.46 997.73 1440.28 974.81" fill="var(--artist-background)" stroke="var(--artist-text)" stroke-miterlimit="10" stroke-width="9.69"/>
      <polygon points="1462.51 1291.42 1295.89 1313.01 1327.57 1191.32 1462.51 1291.42" fill="var(--artist-background)" stroke="var(--artist-text)" stroke-miterlimit="10" stroke-width="3.61"/>
      <polygon points="1881.1 1193.77 2048.95 1307.04 1923.32 1391.82 1881.1 1193.77" fill="var(--artist-background)" stroke="var(--artist-text)" stroke-miterlimit="10" stroke-width="4.35"/>
      <polygon points="1516.19 1310.85 1537.08 974.92 1764.39 1083.52 1516.19 1310.85" fill="var(--artist-background)" stroke="var(--artist-text)" stroke-miterlimit="10" stroke-width="7.23"/>
      <polygon points="1210.5 1131.53 1015.29 1035.01 1136.96 926.55 1210.5 1131.53" fill="var(--artist-background)" stroke="var(--artist-text)" stroke-miterlimit="10" stroke-width="4.68"/>
      <polygon points="658.84 635.63 460.59 457.82 639.53 370.02 658.84 635.63" fill="var(--artist-background)" stroke="var(--artist-text)" stroke-miterlimit="10" stroke-width="5.72"/>
      <polygon points="1270.31 2218.71 1149.19 1780.21 1487.47 1818.97 1270.31 2218.71" fill="var(--artist-background)" stroke="var(--artist-text)" stroke-miterlimit="10" stroke-width="9.78"/>
      <polygon points="1752.04 2049.35 1932.68 2042.78 1886.64 2170 1752.04 2049.35" fill="var(--artist-background)" stroke="var(--artist-text)" stroke-miterlimit="10" stroke-width="3.88"/>
      <polygon points="1946.32 1800.48 2144.15 1558.52 2256.68 1763.6 1946.32 1800.48" fill="var(--artist-background)" stroke="var(--artist-text)" stroke-miterlimit="10" stroke-width="6.72"/>
      <polygon points="2070.78 1129.59 1973.03 806.83 2224.43 829.39 2070.78 1129.59" fill="var(--artist-background)" stroke="var(--artist-text)" stroke-miterlimit="10" stroke-width="7.25"/>
      <polygon points="2162.75 377.87 2046.48 421.36 2048.87 328.48 2162.75 377.87" fill="var(--artist-background)" stroke="var(--artist-text)" stroke-miterlimit="10" stroke-width="2.67"/>
      <polygon points="1668.93 155.88 1780.13 459.39 1538.32 451.55 1668.93 155.88" fill="var(--artist-background)" stroke="var(--artist-text)" stroke-miterlimit="10" stroke-width="6.95"/>
      <polygon points="745.16 1815.73 622.58 2033.59 505.7 1887.49 745.16 1815.73" fill="var(--artist-background)" stroke="var(--artist-text)" stroke-miterlimit="10" stroke-width="5.37"/>
      <polygon points="576.68 1787.54 472.15 1692.69 567.26 1646.7 576.68 1787.54" fill="var(--artist-background)" stroke="var(--artist-text)" stroke-miterlimit="10" stroke-width="3.03"/>
      <polygon points="418.54 1228.14 764.5 1258.89 646.26 1490.4 418.54 1228.14" fill="var(--artist-background)" stroke="var(--artist-text)" stroke-miterlimit="10" stroke-width="7.46"/>
      <polygon points="848.38 1550.42 1216.65 1376.05 1234.52 1680.5 848.38 1550.42" fill="var(--artist-background)" stroke="var(--artist-text)" stroke-miterlimit="10" stroke-width="8.76"/>
      <polygon points="1044.26 2191.8 776.05 2089.11 922.45 1931.71 1044.26 2191.8" fill="var(--artist-background)" stroke="var(--artist-text)" stroke-miterlimit="10" stroke-width="6.17"/>
      <polygon points="584.82 2405.13 484.79 2142.66 694.99 2146.75 584.82 2405.13" fill="var(--artist-background)" stroke="var(--artist-text)" stroke-miterlimit="10" stroke-width="6.04"/>
      <polygon points="1587.52 2106 1601.63 2221.62 1517.43 2199.03 1587.52 2106" fill="var(--artist-background)" stroke="var(--artist-text)" stroke-miterlimit="10" stroke-width="2.5"/>
      <polygon points="1460.2 1744.43 1655.37 2000.16 1423.2 2064 1460.2 1744.43" fill="var(--artist-background)" stroke="var(--artist-text)" stroke-miterlimit="10" stroke-width="6.91"/>
      <polygon points="751.98 423.1 801.63 217.61 930.35 309.63 751.98 423.1" fill="var(--artist-background)" stroke="var(--artist-text)" stroke-miterlimit="10" stroke-width="4.54"/>
      <polygon points="414.24 666.22 5.93 719.64 83.22 421.27 414.24 666.22" fill="var(--artist-background)" stroke="var(--artist-text)" stroke-miterlimit="10" stroke-width="8.85"/>
      <polygon points="1349.37 787.11 1137.22 425.98 1447.29 379.88 1349.37 787.11" fill="var(--artist-background)" stroke="var(--artist-text)" stroke-miterlimit="10" stroke-width="9"/><path d="M1518.87,2021.29l6.34-1.63" fill="none" stroke="#898989" stroke-miterlimit="10"/>
      <polygon points="648.49 716.13 772.23 816.81 667.69 874.5 648.49 716.13" fill="var(--artist-background)" stroke="var(--artist-text)" stroke-miterlimit="10" stroke-width="3.43"/>
      <polygon points="333.27 974.61 469.7 1097.78 346 1157.97 333.27 974.61" fill="var(--artist-background)" stroke="var(--artist-text)" stroke-miterlimit="10" stroke-width="3.95"/>
      <polygon points="1448.81 1184.28 1272.43 944.41 1488.32 889.18 1448.81 1184.28" fill="var(--artist-background)" stroke="var(--artist-text)" stroke-miterlimit="10" stroke-width="6.4"/>
      <polygon points="1023.53 1684 1097.73 1934.51 903.07 1915.84 1023.53 1684" fill="var(--artist-background)" stroke="var(--artist-text)" stroke-miterlimit="10" stroke-width="5.61"/>
      <polygon points="323.58 1756.11 278.29 1981.06 134.84 1886.61 323.58 1756.11" fill="var(--artist-background)" stroke="var(--artist-text)" stroke-miterlimit="10" stroke-width="4.93"/>
      <polygon points="2074.15 1652.25 2004.73 1378.16 2214.41 1406.75 2074.15 1652.25" fill="var(--artist-background)" stroke="var(--artist-text)" stroke-miterlimit="10" stroke-width="6.08"/>
      <polygon points="2076.68 1932.56 1809.78 2018.58 1824.83 1809.24 2076.68 1932.56" fill="var(--artist-background)" stroke="var(--artist-text)" stroke-miterlimit="10" stroke-width="6.03"/>
      <polygon points="1819.3 1551.52 2016.13 1583.57 1938.75 1711.21 1819.3 1551.52" fill="var(--artist-background)" stroke="var(--artist-text)" stroke-miterlimit="10" stroke-width="4.29"/>
      <polygon points="1725.06 1131.31 1848.82 1029.94 1884.51 1144.23 1725.06 1131.31" fill="var(--artist-background)" stroke="var(--artist-text)" stroke-miterlimit="10" stroke-width="3.44"/>
      <polygon points="1678.76 1282.53 1835.57 1262.77 1805.36 1377.14 1678.76 1282.53" fill="var(--artist-background)" stroke="var(--artist-text)" stroke-miterlimit="10" stroke-width="3.4"/>
      <polygon points="1944.89 677.71 2155.69 440.25 2261.46 653.07 1944.89 677.71" fill="var(--artist-background)" stroke="var(--artist-text)" stroke-miterlimit="10" stroke-width="6.82"/>
      <polygon points="1455.01 652.71 1610.49 641.82 1574.49 752.78 1455.01 652.71" fill="var(--artist-background)" stroke="var(--artist-text)" stroke-miterlimit="10" stroke-width="3.35"/>
      <polygon points="944.65 334.92 1063.54 406.31 980.69 468.83 944.65 334.92" fill="var(--artist-background)" stroke="var(--artist-text)" stroke-miterlimit="10" stroke-width="2.98"/>
      <polygon points="938.87 1253.68 978.92 1409.96 859.23 1393.99 938.87 1253.68" fill="var(--artist-background)" stroke="var(--artist-text)" stroke-miterlimit="10" stroke-width="3.47"/>
      <polygon points="355.76 1229.14 103.54 1426.58 37.15 1196.22 355.76 1229.14" fill="var(--artist-background)" stroke="var(--artist-text)" stroke-miterlimit="10" stroke-width="6.88"/>
      <polygon points="254.46 612.26 354.88 1024.3 40.76 978.58 254.46 612.26" fill="var(--artist-background)" stroke="var(--artist-text)" stroke-miterlimit="10" stroke-width="9.11"/>
      <polygon points="1146.86 2128.88 1160.02 2289.65 1044.74 2253.75 1146.86 2128.88" fill="var(--artist-background)" stroke="var(--artist-text)" stroke-miterlimit="10" stroke-width="3.47"/>
      <polygon points="1484.95 2272.97 1297.68 2242.25 1371.46 2120.88 1484.95 2272.97" fill="var(--artist-background)" stroke="var(--artist-text)" stroke-miterlimit="10" stroke-width="4.08"/>
      <polygon points="1631.73 2130 1853.08 2291.14 1679.24 2399.64 1631.73 2130" fill="var(--artist-background)" stroke="var(--artist-text)" stroke-miterlimit="10" stroke-width="5.88"/>
      <polygon points="1967.86 2238.68 2193.16 2018.49 2282.88 2236.54 1967.86 2238.68" fill="var(--artist-background)" stroke="var(--artist-text)" stroke-miterlimit="10" stroke-width="6.77"/>
      <polygon points="297.32 2142.22 310.08 2283.34 208.56 2252.66 297.32 2142.22" fill="var(--artist-background)" stroke="var(--artist-text)" stroke-miterlimit="10" stroke-width="3.04"/></svg>